{"accessors" : [{"bufferView" : 0, "byteOffset" : 0, "componentType" : 5123, "count" : 1284, "type" : "SCALAR", "max" : [1151], "min" : [0]}, {"bufferView" : 1, "byteOffset" : 0, "componentType" : 5126, "count" : 1152, "type" : "VEC3", "max" : [0.6796600222587585, 0.976580023765564, 1.0308899879455566], "min" : [-0.6796600222587585, -0.9770900011062622, -0.5259799957275391], "name" : "POSITION"}, {"bufferView" : 1, "byteOffset" : 12, "componentType" : 5126, "count" : 1152, "type" : "VEC3", "max" : [0.9991530776023865, 0.9992818832397461, 0.9927225708961487], "min" : [-0.9991530776023865, -0.9933336973190308, -0.9969393014907837], "name" : "NORMAL"}, {"bufferView" : 0, "byteOffset" : 2568, "componentType" : 5123, "count" : 504, "type" : "SCALAR", "max" : [441], "min" : [0]}, {"bufferView" : 2, "byteOffset" : 0, "componentType" : 5126, "count" : 442, "type" : "VEC3", "max" : [0.5947700142860413, -0.011620000004768372, -0.07998000085353851], "min" : [-0.5947700142860413, -0.9467999935150146, -0.9572200179100037], "name" : "POSITION"}, {"bufferView" : 2, "byteOffset" : 12, "componentType" : 5126, "count" : 442, "type" : "VEC3", "max" : [0.9912647008895874, 0.9954488277435303, 0.9996805787086487], "min" : [-0.9912647008895874, -0.9544661641120911, -0.9907949566841125], "name" : "NORMAL"}], "asset" : {"generator" : "Aspose.3D 23.2", "version" : "2.0"}, "buffers" : [{"uri" : "data:application/octet-stream;base64,", "byteLength" : 46500}], "bufferViews" : [{"buffer" : 0, "byteOffset" : 0, "byteLength" : 3576, "target" : 34963}, {"buffer" : 0, "byteOffset" : 3580, "byteLength" : 30816, "byteStride" : 24, "target" : 34962}, {"buffer" : 0, "byteOffset" : 34400, "byteLength" : 12096, "byteStride" : 24, "target" : 34962}], "materials" : [{"pbrMetallicRoughness" : {"baseColorFactor" : [0.5686274509803921, 0.3686274509803922, 1, 1], "metallicFactor" : 0.8092132947, "roughnessFactor" : 0.7967909345}, "emissiveFactor" : [0, 0, 0], "alphaMode" : "OPAQUE", "doubleSided" : false}, {"pbrMetallicRoughness" : {"baseColorFactor" : [0.5686274509803921, 0.3686274509803922, 1, 1], "metallicFactor" : 0.8092132947, "roughnessFactor" : 0.7967909345}, "emissiveFactor" : [0, 0, 0], "alphaMode" : "OPAQUE", "doubleSided" : false}], "meshes" : [{"primitives" : [{"attributes" : {"POSITION" : 1, "NORMAL" : 2}, "indices" : 0, "material" : 0, "mode" : 4}]}, {"primitives" : [{"attributes" : {"POSITION" : 4, "NORMAL" : 5}, "indices" : 3, "material" : 1, "mode" : 4}]}], "nodes" : [{"mesh" : 0, "name" : "Cube_0"}, {"children" : [0], "name" : "Cube"}, {"mesh" : 1, "name" : "Cube.001_0"}, {"children" : [2], "name" : "Cube.001"}, {"children" : [1, 3], "name" : "Root"}, {"children" : [4], "matrix" : [1, 0, 0, 0, 0, 3.422854177870249E-08, -0.9999999403953552, 0, 0, 0.9999999403953552, 3.422854177870249E-08, 0, 0, 0, 0, 1], "name" : "Sketchfab_model"}], "scene" : 0, "scenes" : [{"nodes" : [5]}]}